<?xml version="1.0" encoding="UTF-8"?>
<svg id="Layer_1" data-name="Layer 1" xmlns="http://www.w3.org/2000/svg" viewBox="0 0 279.81 288">
  <path d="M52.69,88.4v-5.01h-25.22v39.43h25.73v-5.11h-20.32v-12.44h18.8v-5.21h-18.8v-11.68h19.82Z"/>
  <path d="M84.03,110.69l4.85,12.13h5.81l-15.52-39.43h-6.22l-15.52,39.43h5.71c1.62-4.04,3.13-8.09,4.75-12.13h16.13ZM75.99,89.86h.1c1.92,5.21,4.04,10.67,6.02,15.62h-12.23l6.12-15.62Z"/>
  <path d="M125.79,111.65c0-7.33-6.37-9.1-10.41-10.41l-3.99-1.26c-2.78-.91-7.63-2.53-7.63-6.77,0-3.39,3.08-5.66,7.23-5.66s7.33,2.53,8.64,6.37l4.95-2.02c-1.52-5.46-6.57-9.3-13.34-9.3s-13.19,3.94-13.19,11.02c0,7.43,6.82,9.96,10.72,11.17l3.64,1.11c3.59,1.11,7.53,2.17,7.53,6.47s-4.09,6.32-8.09,6.32c-4.35,0-8.49-2.43-10.11-8.39l-5.05,1.77c2.12,8.14,8.49,11.63,15.22,11.63,7.94,0,13.9-4.95,13.9-12.03Z"/>
  <polygon points="146.89 122.82 146.89 88.4 159.58 88.4 159.58 83.39 128.74 83.39 128.74 88.4 141.43 88.4 141.43 122.82 146.89 122.82"/>
  <path d="M190.3,88.4v-5.01h-25.23v39.43h25.73v-5.11h-20.32v-12.44h18.8v-5.21h-18.8v-11.68h19.82Z"/>
  <path d="M225.46,95.57c0-9.45-8.29-12.18-13.29-12.18h-14.46v39.43h5.41v-14.96h6.93l9.96,14.96h6.12c-3.39-5.11-6.82-10.21-10.26-15.32v-.05c5.26-.81,9.6-4.8,9.6-11.88ZM211.36,103.05h-8.24v-14.71h8.09c4.35,0,8.54,2.27,8.54,7.38s-3.99,7.33-8.39,7.33Z"/>
  <path d="M264.7,122.82v-39.43h-5.41v30.18h-.1c-6.93-10.41-13.8-20.22-20.67-30.18h-5.71v39.43h5.41v-29.72h.1c6.93,10.26,13.85,19.92,20.67,29.72h5.71Z"/>
  <path d="M59.06,161.55c-1.87,6.32-6.62,10.82-13.65,10.82s-14.66-4.6-14.66-15.27c0-9.71,6.32-15.62,14.1-15.62,5.86,0,10.56,3.44,12.74,8.85l5-2.02c-2.63-7.68-9.86-11.93-17.69-11.93-10.67,0-19.87,7.73-19.87,20.52s8.39,20.57,20.17,20.57c9.3,0,16.02-5.31,18.86-14.15l-5-1.77Z"/>
  <path d="M74.74,164.48h16.13l4.85,12.13h5.81l-15.52-39.43h-6.22l-15.52,39.43h5.71c1.62-4.04,3.13-8.09,4.75-12.13ZM82.83,143.65h.1c1.92,5.21,4.04,10.67,6.02,15.62h-12.23l6.12-15.62Z"/>
  <path d="M111.5,161.65h6.93l9.96,14.96h6.12c-3.39-5.11-6.82-10.21-10.26-15.32v-.05c5.26-.81,9.6-4.8,9.6-11.88,0-9.45-8.29-12.18-13.29-12.18h-14.46v39.43h5.41v-14.96ZM111.5,142.14h8.09c4.35,0,8.54,2.27,8.54,7.38s-3.99,7.33-8.39,7.33h-8.24v-14.71Z"/>
  <path d="M157.38,176.61l15.47-39.43h-5.71c-3.08,7.89-8.85,22.9-12.74,32.91h-.1c-3.79-10.01-9.65-25.02-12.89-32.91h-5.76l15.52,39.43h6.22Z"/>
  <path d="M202.5,171.51h-20.32v-12.44h18.8v-5.21h-18.8v-11.68h19.82v-5h-25.23v39.43h25.73v-5.11Z"/>
  <path d="M214,161.65h6.93l9.96,14.96h6.12c-3.39-5.11-6.82-10.21-10.26-15.32v-.05c5.26-.81,9.6-4.8,9.6-11.88,0-9.45-8.29-12.18-13.29-12.18h-14.46v39.43h5.41v-14.96ZM214,142.14h8.09c4.35,0,8.54,2.27,8.54,7.38s-3.99,7.33-8.39,7.33h-8.24v-14.71Z"/>
  <path d="M44.86,195.27c5.86,0,10.56,3.44,12.74,8.85l5-2.02c-2.63-7.68-9.86-11.93-17.69-11.93-10.67,0-19.87,7.73-19.87,20.52s8.39,20.57,20.17,20.57c9.3,0,16.02-5.31,18.86-14.15l-5-1.77c-1.87,6.32-6.62,10.82-13.65,10.82s-14.66-4.6-14.66-15.27c0-9.71,6.32-15.62,14.1-15.62Z"/>
  <path d="M85.83,231.26c11.07,0,19.87-8.75,19.87-20.52s-8.75-20.57-19.87-20.57-19.87,8.59-19.87,20.57,8.95,20.52,19.87,20.52ZM85.88,195.27c7.78,0,14.05,6.62,14.05,15.47s-6.32,15.42-14.05,15.42-14.15-6.42-14.15-15.42,6.42-15.47,14.15-15.47Z"/>
  <path d="M124.93,231.26c11.58,0,14.66-8.09,14.66-15.72v-24.57h-5.46v24.16c0,7.18-2.98,11.07-9.1,11.07s-9.15-3.89-9.15-11.07v-24.16h-5.46v24.57c0,8.44,3.59,15.72,14.51,15.72Z"/>
  <path d="M151.91,200.68h.1c6.93,10.26,13.85,19.92,20.67,29.72h5.71v-39.43h-5.41v30.18h-.1c-6.93-10.41-13.8-20.22-20.67-30.18h-5.71v39.43h5.41v-29.72Z"/>
  <polygon points="199.94 230.4 199.94 195.98 212.63 195.98 212.63 190.98 181.8 190.98 181.8 195.98 194.49 195.98 194.49 230.4 199.94 230.4"/>
  <path d="M232.69,230.4v-14.05c4.8-8.44,9.5-16.93,14.31-25.38h-5.86l-11.07,20.07h-.1l-11.07-20.07h-5.86c4.7,8.49,9.5,16.93,14.26,25.43v14h5.41Z"/>
  <path d="M43.09,262.61l-3.99-1.26c-2.78-.91-7.63-2.53-7.63-6.77,0-3.39,3.08-5.66,7.23-5.66s7.33,2.53,8.64,6.37l4.95-2.02c-1.52-5.46-6.57-9.3-13.34-9.3s-13.19,3.94-13.19,11.02c0,7.43,6.82,9.96,10.72,11.17l3.64,1.11c3.59,1.11,7.53,2.17,7.53,6.47s-4.09,6.32-8.09,6.32c-4.35,0-8.49-2.43-10.11-8.39l-5.05,1.77c2.12,8.14,8.49,11.63,15.22,11.63,7.94,0,13.9-4.95,13.9-12.03s-6.37-9.1-10.41-10.41Z"/>
  <path d="M75.96,279.95c-7.08,0-14.66-4.6-14.66-15.27,0-9.71,6.32-15.62,14.1-15.62,5.86,0,10.57,3.44,12.74,8.85l5.01-2.02c-2.63-7.68-9.86-11.93-17.69-11.93-10.67,0-19.87,7.73-19.87,20.52s8.39,20.57,20.17,20.57c9.3,0,16.02-5.31,18.86-14.15l-5-1.77c-1.87,6.32-6.62,10.82-13.65,10.82Z"/>
  <path d="M123.93,261.9h-20.52v-17.14h-5.41v39.43h5.41v-17.09h20.52v17.09h5.41v-39.43h-5.41v17.14Z"/>
  <path d="M154,243.96c-10.97,0-19.87,8.59-19.87,20.57s8.95,20.52,19.87,20.52,19.87-8.74,19.87-20.52-8.75-20.57-19.87-20.57ZM154.05,279.95c-7.68,0-14.15-6.42-14.15-15.42s6.42-15.47,14.15-15.47,14.05,6.62,14.05,15.47-6.32,15.42-14.05,15.42Z"/>
  <path d="M196.36,243.96c-10.97,0-19.87,8.59-19.87,20.57s8.95,20.52,19.87,20.52,19.87-8.74,19.87-20.52-8.75-20.57-19.87-20.57ZM196.41,279.95c-7.68,0-14.15-6.42-14.15-15.42s6.42-15.47,14.15-15.47,14.05,6.62,14.05,15.47-6.32,15.42-14.05,15.42Z"/>
  <path d="M226.42,244.77h-5.41v39.43h24.26v-5.11h-18.86v-34.32Z"/>
  <path d="M264.46,262.61l-3.99-1.26c-2.78-.91-7.63-2.53-7.63-6.77,0-3.39,3.08-5.66,7.23-5.66s7.33,2.53,8.64,6.37l4.95-2.02c-1.52-5.46-6.57-9.3-13.34-9.3s-13.19,3.94-13.19,11.02c0,7.43,6.82,9.96,10.72,11.17l3.64,1.11c3.59,1.11,7.53,2.17,7.53,6.47s-4.09,6.32-8.09,6.32c-4.35,0-8.49-2.43-10.11-8.39l-5.05,1.77c2.12,8.14,8.49,11.63,15.22,11.63,7.94,0,13.9-4.95,13.9-12.03s-6.37-9.1-10.41-10.41Z"/>
  <path d="M37.76,47.43l-.66-5.59c-.01-.11.04-.24.15-.27.1-.05.22-.02.3.06l3.61,3.72h0s.45.47.45.47c0,0,0,0,0,0l2.75,2.88c2.52-1.13,5.13-2.27,7.89-3.39l1.31-.49c.1-.05.22-.02.3.06.08.08.09.2.04.3l-4.87,8.7c-.04.06-.03.14.02.19l6.77,7.33c.08.08.09.2.04.3-.05.09-.17.15-.28.13l-9.79-1.95c-.07-.01-.14.02-.18.08l-4.87,8.71c-.06.1-.17.15-.28.13-.11-.02-.19-.11-.21-.22l-1.14-9.61c0-.06-.05-.11-.1-.13-.06-.02-.12-.01-.17.03l-2.46,2.16s-.06.09-.06.14l1.82,15.41c.04.36.31.64.66.71.35.07.71-.09.88-.41l7.52-13.44,15.1,3c.18.04.37,0,.54-.08.14-.07.26-.19.34-.33.17-.31.13-.7-.11-.96l-10.45-11.31,6.17-11.02c3.15-1.17,6.43-2.32,9.85-3.43,8-2.59,17.13-5.07,27.3-7.13l.7-5.84.62-5.42c.01-.12.11-.25.23-.26.13-.03.25.03.32.14l3.05,4.8h0s1.06,1.67,1.06,1.67c0,0,0,0,0,0l2.16,3.41c3.47-.59,7.03-1.15,10.71-1.63l-7.37,8.17c-.05.06-.06.15-.02.22l5.64,9.79c.06.11.05.25-.04.34-.08.09-.22.12-.34.07l-10.32-4.61c-.07-.03-.16-.01-.22.05l-7.57,8.39c-.09.1-.22.12-.34.07-.12-.05-.19-.17-.17-.3l1.16-10.9c0-.07-.02-.14-.08-.17-.06-.04-.13-.04-.19,0l-3.26,1.77c-.05.03-.09.08-.1.14l-1.85,17.49c-.04.4.18.79.55.95.37.17.8.08,1.08-.23l11.69-12.96,15.93,7.11c.19.09.41.1.62.05.18-.05.34-.14.46-.28.27-.3.32-.74.12-1.09l-8.71-15.12,8.65-9.59c13.18-1.46,27.67-2.06,43.31-1.44l1.37-3.68s0,0,0,0l3.28-8.75c.05-.14.2-.26.34-.23.15,0,.28.11.32.26l1.86,5.99v.03s.96,3.07.96,3.07c0,0,0,0,0,0l1.18,3.83c4.46.31,8.98.7,13.62,1.23,0,.12-.04.23-.14.3l-11.28,7.44c-.08.05-.12.15-.09.25l3.59,13.02c.04.15-.02.3-.15.39-.12.08-.29.07-.41-.02l-10.56-8.43c-.08-.06-.18-.06-.26-.01l-11.28,7.44c-.13.09-.29.08-.41-.02-.12-.09-.16-.26-.11-.4l4.61-12.27c.03-.08.01-.16-.04-.23-.05-.06-.14-.09-.22-.07l-4.31,1.07c-.07.02-.13.07-.16.14l-7.39,19.67c-.17.45-.03.96.35,1.26.38.31.91.33,1.31.06l17.4-11.48,16.3,13c.2.16.44.24.7.24.22,0,.43-.06.62-.19.41-.27.59-.76.46-1.23l-5.54-20.1,13.68-9.02c14.6,1.98,30.02,5.08,46.21,9.59.8.22,1.6-.13,2.03-.79l7.34-9.32c.09-.12.27-.19.4-.12.14.05.24.19.24.34l-.27,13.16c0,.1.06.18.15.22l12.75,4.79c.14.05.24.19.24.34,0,.15-.1.29-.25.33l-12.93,3.91c-.09.03-.16.11-.16.21l-.28,13.51c0,.15-.1.29-.25.33-.14.04-.3-.01-.39-.14l-7.72-11.09c-.06-.08-.15-.11-.25-.09l-12.93,3.91c-.15.05-.3-.01-.39-.14-.09-.12-.08-.29,0-.41l7.92-10.44c.05-.07.06-.15.02-.23-.03-.08-.11-.13-.19-.13l-4.43-.2c-.07,0-.14.03-.19.09l-12.7,16.74c-.29.39-.3.91-.03,1.31.28.4.78.57,1.24.43l19.96-6.04,11.91,17.12c.14.21.36.36.6.43.21.06.43.06.64,0,.46-.14.78-.56.79-1.05l.43-20.85,19.96-6.04c.46-.14.78-.56.79-1.05,0-.49-.29-.92-.75-1.08l-19.7-6.85.43-20.85c0-.49-.29-.92-.75-1.08-.44-.15-.97,0-1.26.38l-12.48,16.46c-22.71-6.23-43.92-9.73-63.48-11.25l-5.5-19.93c-.13-.47-.54-.8-1.03-.82-.47-.02-.93.27-1.1.72l-7.22,19.22c-20.65-.62-39.22.93-55.49,3.62l-8.49-14.74c-.2-.35-.61-.53-1-.45-.38.08-.69.42-.74.82l-1.76,16.64c-9.49,2.02-18.06,4.37-25.64,6.83-8.57,2.78-16.29,5.79-23.13,8.8l-9.55-10.33c-.24-.26-.63-.34-.95-.19-.31.15-.52.5-.47.85l1.66,14.02c-18.89,9.35-28.96,17.71-29.57,18.22-.78.66-.88,1.83-.23,2.61.37.44.89.66,1.42.66.42,0,.85-.14,1.19-.43.15-.13,10.74-8.88,30.43-18.47l-.39-4.17Z"/>
</svg>