<?xml version="1.0" encoding="UTF-8"?>
<svg id="Layer_1" data-name="Layer 1" xmlns="http://www.w3.org/2000/svg" viewBox="0 0 281.23 288">
  <g>
    <polygon points="177.61 49.2 181.3 49.19 180.78 43.46 177.61 49.2"/>
    <polygon points="195.74 49.14 199.44 49.13 198.92 43.4 195.74 49.14"/>
    <path d="M148.42,6.02s-38.01,21.57-89.95,21.76c.05,14.35.12,34.34.14,40.67l180.05-.63c-.02-6.33-.09-26.32-.14-40.67-51.93.18-90.1-21.12-90.1-21.12ZM83.54,52.87h.47c.56,0,1.14-.03,1.81-.13l1.31-5.71,4.61-.02-2.02,8.74c-1.97.49-4.02.7-6.3.7h-.44c-5.89.02-8.31-1.69-7.02-7.02l1.04-4.6c1.2-5.31,4.28-7.06,9.78-7.08h.47c2.83-.01,4.33.21,6.47.58l-1.71,3.52c-1.22-.25-2.83-.52-4.61-.51h-.47c-3.94.02-4.58,1.08-5.15,3.48l-1.04,4.6c-.58,2.4-.46,3.46,2.82,3.45ZM106.31,52.56l-.79,3.56-12.55.04,4.16-18.17,12.55-.04-.82,3.56-7.94.03-.79,3.49,6.28-.02-.82,3.56-6.28.02-.93,3.99,7.94-.03ZM120.34,56.07l-4.62-10.94-2.52,10.97-4.55.02,4.16-18.17,4.55-.02,4.57,11.17,2.57-11.19,4.58-.02-4.16,18.17-4.58.02ZM144.7,41.39l-7.94.03-.79,3.49,6.28-.02-.82,3.56-6.28.02-.93,3.99,7.94-.03-.79,3.56-12.55.04,4.16-18.17,12.55-.04-.82,3.56ZM162.14,55.92l1.7-7.43-6.25.02-1.7,7.43-4.61.02,4.16-18.17,4.61-.02-1.64,7.15,6.25-.02,1.64-7.15,4.64-.02-4.16,18.17-4.64.02ZM181.94,55.85l-.29-3.1-6.03.02-1.71,3.11-5.03.02,11.04-18.19h3.97s2.84,18.13,2.84,18.13l-4.8.02ZM200.07,55.79l-.29-3.1-6.03.02-1.71,3.11-5.03.02,11.04-18.19h3.97s2.84,18.13,2.84,18.13l-4.8.02ZM221.74,41.53c-1.14-.32-2.5-.65-4.11-.64-1.8,0-3,.46-3.27,1.65-.77,3.34,8,1.49,6.44,8.46-1.04,4.32-4.54,4.99-8.28,5-2.61,0-5.06-.41-6.59-.73l1.4-3.59c1.56.35,3.75.72,5.42.71,1.86,0,3.03-.49,3.3-1.75.79-3.56-7.98-1.66-6.47-8.49,1.04-4.24,5.31-4.84,8.01-4.85,3.14-.01,4.44.36,5.72.74l-1.57,3.49Z"/>
  </g>
  <path d="M207.34,77.7l-83.73,146.21-34.61.12,19.74-34.47-105.3.27,17.22-30.02,105.27-.27,46.8-81.72,34.61-.12ZM242.61,77.58l-46.78,81.69-25.42.02-17.22,30.02,25.45-.02-19.76,34.5,34.61-.12,83.73-146.21-34.61.12Z"/>
  <g>
    <path d="M119.15,109.3l-7.71.03.02,5.06-7,.02-.03-8.92-10.24.04.02,4.47-6.82.02.02,4.45-13.54.05.08,21.79,2.22,3.27.02,5.31,13.1-.05v2.49s1.99,0,1.99,0v-2.49s13.69-.05,13.69-.05v2.49s1.99,0,1.99,0v-2.49s15.14-.05,15.14-.05l-.06-6.11,1.13-3.29-.07-20.98h-3.89s-.02-5.05-.02-5.05ZM117.18,111.29v3.08s-3.74.01-3.74.01v-3.08s3.74-.01,3.74-.01ZM109.94,137.19l-.07-20.81,11.23-.04.1,18.66-.76,2.15-10.5.04ZM89.44,130.1l-.04-10.02h3.3s.04,10.01.04,10.01h-3.3ZM97.72,122.57v2.07s1.99,0,1.99,0v-2.07s1.08,0,1.08,0v-2.52s1.71,0,1.71,0l.04,10.02-7.82.03-.04-10.02h1.82s0,2.51,0,2.51h1.2ZM107.94,132.02l.02,5.18-18.49.07-.02-5.18,18.49-.07ZM107.9,120.02l.04,10.02h-3.41s-.04-10.01-.04-10.01h3.41ZM89.38,114.47v-2.46s4.83-.02,4.83-.02v2.46s-4.83.02-4.83.02ZM96.18,107.51l6.28-.02.02,6.94-6.27.02-.03-6.94ZM107.88,116.38v1.65s-18.49.07-18.49.07v-1.65s18.49-.07,18.49-.07ZM120.07,139.13v3.62s-41.93.15-41.93.15v-3.62s41.93-.15,41.93-.15ZM75.9,129.93l-.02-6.17,8.76-.03v-1.98s-8.77.03-8.77.03l-.02-5.28,11.56-.04.07,20.81-10.48.04-1.08-1.61v-3.79s8.75-.03,8.75-.03v-1.98s-8.77.03-8.77.03Z"/>
    <path d="M111.51,129.93l7.32-.03v-1.99s-5.34.02-5.34.02v-1.08s5.73-.02,5.73-.02l-.03-8.84-7.71.03.04,11.91ZM113.48,124.74l-.02-4.75h3.75s.02,4.73.02,4.73h-3.75Z"/>
    <path d="M146.51,89.8v-2.32s-4.06.01-4.06.01c-1.09-1.88-3.1-3.15-5.42-3.14-1.2,0-2.31.36-3.26.96-2.24-.76-3.57-1.18-6.15-1.17l-22.23.15-.02-5.75c0-1.01-.82-1.82-1.83-1.82h-.12c-1.45.23-14.27,2.15-16.08,2.8l-6.64,2.39-.76-1.53c-.55-1.11-1.71-1.83-2.95-1.83l-12.88.05,3.3,8.82h3.71c-.65.98-1.04,2.16-1.03,3.44.01,3.45,2.83,6.25,6.28,6.23,1.97,0,3.71-.95,4.85-2.38l47.68-.17.03-.82c0-.19.09-1.16,1.13-1.17h1.09c.82,2.5,3.16,4.33,5.94,4.32,2.32,0,4.33-1.3,5.4-3.19.3.48.82.81,1.43.8l9.78-.03-.02-4.67-7.16.03ZM126.01,86.09v2.14s-16.07.06-16.07.06v-2.14s16.07-.06,16.07-.06ZM76.36,95.38c-2.52,0-4.57-2.03-4.58-4.55s2.03-4.57,4.55-4.58,4.57,2.03,4.58,4.55-2.03,4.57-4.54,4.58ZM130.05,90.85c-1.55,0-2.37,1.01-2.67,1.99l-45.19.16c.26-.69.41-1.42.41-2.2-.01-3.45-2.83-6.25-6.28-6.23-1.32,0-2.54.42-3.55,1.13h-4.19s-2.03-5.42-2.03-5.42l10.44-.04c.6,0,1.16.34,1.43.88l1.43,2.89,8.06-2.9c1.24-.45,10.01-1.85,15.66-2.69.05.01.1.06.1.12l.02,5.77-9.93.18c-.85.01-1.69.16-2.49.43l-6.14,2.06.54,1.61,6.14-2.06c.64-.21,1.3-.33,1.98-.34l10.77-.2h0s3.67-.03,3.67-.03v4.02s19.48-.07,19.48-.07v-4.08c1.88,0,3.01.26,4.57.77-.92,1.09-1.5,2.49-1.49,4.03,0,.07.02.14.02.22h-.78ZM137.07,95.17c-2.52,0-4.57-2.03-4.58-4.55s2.03-4.57,4.54-4.58,4.57,2.03,4.58,4.55c0,.07-.02.14-.02.22h-.05s0,.46,0,.46c-.32,2.19-2.2,3.89-4.48,3.9ZM151.98,92.76l-8.06.05c0-.59-.27-1.12-.68-1.48.03-.24.07-.48.07-.73,0-.48-.07-.95-.18-1.4h1.67s0,2.32,0,2.32l7.16-.03v1.28Z"/>
    <path d="M114.22,83.13c0-2.28-1.87-4.14-4.16-4.13s-4.14,1.87-4.13,4.16v.85s8.29-.03,8.29-.03v-.85ZM107.77,82.31c.34-.93,1.24-1.6,2.29-1.61s1.95.66,2.3,1.59l-4.59.02Z"/>
    <path d="M76.33,87.41c-1.88,0-3.41,1.54-3.4,3.43s1.54,3.41,3.43,3.4,3.41-1.54,3.4-3.43-1.54-3.41-3.43-3.4ZM76.35,92.54c-.95,0-1.72-.76-1.73-1.71s.76-1.72,1.71-1.73,1.72.76,1.73,1.71-.76,1.72-1.71,1.73Z"/>
    <path d="M137.04,87.19c-1.88,0-3.41,1.54-3.4,3.43s1.54,3.41,3.43,3.4,3.41-1.54,3.4-3.43-1.54-3.41-3.43-3.4ZM137.06,92.33c-.95,0-1.72-.76-1.73-1.71s.76-1.72,1.71-1.73,1.72.76,1.73,1.71-.76,1.72-1.71,1.73Z"/>
  </g>
  <g>
    <path d="M194.51,248.09c-2.3.16-3.36,1.33-3.21,3.42l.16,2.17c.16,2.17,1.37,3.2,3.67,3.03,2.31-.17,3.37-1.35,3.22-3.52l-.15-2.16c-.15-2.1-1.37-3.11-3.68-2.94Z"/>
    <polygon points="160.57 249.82 158.2 255.56 163.22 255.46 160.6 249.82 160.57 249.82"/>
    <path d="M98.63,248.13c-2.3-.16-3.51.84-3.66,2.93l-.16,2.17c-.16,2.17.9,3.36,3.2,3.53,2.31.17,3.53-.86,3.69-3.03l.16-2.16c.15-2.1-.91-3.27-3.22-3.44Z"/>
    <path d="M142.37,249.96v8.19s3.44,0,3.44,0c2.32,0,3.46-1.05,3.46-3.32v-1.56c0-2.23-1.14-3.3-3.46-3.31h-3.44Z"/>
    <path d="M238.92,139.46c-.02-6.33-.2-57.3-.25-71.65-51.93.18-128.11.45-180.05.63.05,14.35.23,65.31.25,71.65.12,34.93,12,66.89,31.46,92.83-2.78-.22-5.68-.42-8.27-.68-12.9-1.3-19.81-2.74-22.7-3.46l.09,25.16c.01.11.04.21.02.33,0,.02-.02.03-.02.05l.04,10.86c5.09.96,29.56,5.18,71.75,6.06,5.82,3.71,11.86,7.11,18.17,10.04h0c6.28-2.97,12.3-6.42,18.09-10.17,42.32-1.16,66.84-5.56,71.93-6.57l-.13-36.39c-3.46.89-12.95,2.84-31.21,4.41,19.31-26.09,30.97-58.16,30.85-93.11ZM60.43,140.09l-.25-70.09,176.93-.62.25,70.09c.12,34.25-11.56,66.78-31.49,93.29-13.7,1.11-31.94,1.99-56.53,2.08-21.81.08-40.75-.53-56.81-1.73-20.09-26.36-31.99-58.79-32.11-93.02ZM152.36,253.09v1.83c0,3.22-2.41,5.46-6.56,5.46h-6.55s0-12.75,0-12.75h6.55c4.15,0,6.55,2.26,6.55,5.46ZM90.39,247.78l-7.8-.79-.32,3.18,6.63.67-.22,2.13-6.62-.67-.51,5.02-3.09-.31,1.28-12.67,10.89,1.1-.24,2.34ZM104.79,253.95c-.23,3.21-2.78,5.28-6.93,4.98-4.14-.3-6.36-2.71-6.13-5.92l.16-2.16c.23-3.21,2.78-5.28,6.91-4.98,4.15.3,6.38,2.71,6.15,5.9l-.16,2.17ZM120.28,254.72c-.15,3.21-2.62,5.32-6.78,5.13-4.12-.19-6.45-2.44-6.31-5.56l.35-7.64,3.11.14-.35,7.65c-.09,2,1.4,2.91,3.31,3,2.21.1,3.5-.81,3.59-2.69l.35-7.65,3.07.14-.34,7.48ZM126.23,251.71h-.04s-.18,8.41-.18,8.41l-2.78-.06.28-12.74,2.41.05,7.09,8.43h.04s.18-8.27.18-8.27l2.76.06-.28,12.74-2.27-.05-7.21-8.58ZM149.39,279.56c-5.16-2.42-9.97-5.35-14.76-8.29,4.79.08,9.62.15,14.85.13s9.89-.12,14.61-.23c-4.77,2.97-9.56,5.93-14.7,8.39ZM165.42,260.15l-1.23-2.63-6.85.13-1.11,2.67-3.18.06,5.88-12.85,3.27-.06,6.4,12.62-3.18.06ZM175.52,259.81l-3.09.12-.39-10.34-4.53.17-.09-2.39,12.15-.46.09,2.39-4.53.17.39,10.34ZM182.46,259.49l-.67-12.72,3.09-.16.67,12.72-3.09.16ZM195.28,258.89c-4.14.3-6.68-1.78-6.91-4.98l-.15-2.16c-.23-3.21,1.99-5.62,6.13-5.92,4.15-.3,6.7,1.78,6.93,4.97l.16,2.17c.23,3.21-1.99,5.62-6.15,5.92ZM213.04,244.35l2.74-.28,1.28,12.67-2.25.23-8.21-7.63h-.03s.85,8.38.85,8.38l-2.76.28-1.29-12.67,2.4-.24,8.07,7.5h.04s-.83-8.24-.83-8.24Z"/>
    <path d="M260.55,248.36l-8.32-15.82c-.18-.33-.19-.72-.05-1.07l7.8-19.14c-9.97,1.92-29.19,4.57-38.31,5.79l19.31,7.16c.1.04.17.1.25.15.02.01.04,0,.05.02.01,0,.01.02.03.03.14.11.26.24.35.4,0,0,.01.01.02.02.08.17.13.35.13.54,0,.01,0,.02,0,.03l.09,25.48c8.21-1.25,15.55-2.87,18.65-3.59Z"/>
    <path d="M80.3,220.06l-18.16,6.99c3.41.71,9.25,1.72,18.2,2.68l-.04-9.66Z"/>
    <path d="M38.58,213.14l7.94,19.09c.15.34.13.73-.04,1.07l-8.21,15.88c3.1.7,10.43,2.27,18.65,3.46l-.09-25.5c0-.35.17-.66.41-.9h0s.06-.09.1-.12c.08-.06.18-.07.27-.11.02,0,.03-.03.05-.03l19.26-7.3c-9.13-1.16-28.36-3.67-38.35-5.52Z"/>
    <path d="M218,219.37l.03,9.72c9.02-1.02,14.87-2.12,18.26-2.85l-18.29-6.87Z"/>
  </g>
</svg>