<?xml version="1.0" encoding="UTF-8"?>
<svg id="Layer_1" data-name="Layer 1" xmlns="http://www.w3.org/2000/svg" viewBox="0 0 334.32 182.19">
  <path d="M228.26,36.82c-1.87-6.9-6.12-12.29-11.51-16.78-13.36-11.14-29.43-14.69-46.19-15.85-8.48-.59-16.87.9-25.09,2.97-11.79,2.96-22.6,7.88-30.87,17.12-7.29,8.15-10.33,17.51-6.61,28.27,2.54,7.36,7.58,12.87,13.8,17.32,13.82,9.87,29.61,13.1,48.79,13.57,3.62-.46,9.81-.92,15.86-2.1,12.63-2.46,24.25-7.26,33.44-16.64,7.6-7.77,11.35-16.89,8.37-27.87ZM219.94,56.25c-5.36,8.28-13.4,13.19-22.39,16.44-20.4,7.38-40.92,7.38-61.09-.72-5.4-2.17-10.68-5.38-15.06-9.2-13.46-11.76-12.92-27.59.87-39.05,9.28-7.71,20.26-11.44,32-13.18,4.56-.68,9.19-.86,11.64-1.08,15.54.23,28.37,2.62,40.15,9.26,5.93,3.34,11.14,7.55,14.57,13.56,4.61,8.09,4.36,16.18-.69,23.98Z"/>
  <path d="M59.48,138.92c-.69-12.61-.37-24.87-.28-37.51-2.1,0-4.87.22-7.59-.06-2.82-.29-4.23.9-5.46,3.29-3.45,6.75-7.13,13.38-10.72,20.05-.39.73-.86,1.41-1.55,2.54-.67-1.14-1.12-1.84-1.51-2.57-3.75-6.99-7.46-13.99-11.25-20.95-.47-.86-1.31-2.1-2.03-2.14-3.95-.21-7.91-.1-11.99-.1,1.4,4.15,1.36,32.7.14,37.3h7.92v-26.8c.76,1.21,1.27,1.94,1.7,2.72,4.06,7.41,8.13,14.82,12.11,22.27.8,1.5,1.77,2.15,3.48,2.16,1.72,0,2.67-.68,3.45-2.18,3.82-7.34,7.73-14.64,11.63-21.93.44-.83,1.02-1.59,1.73-2.68v26.6h10.22Z"/>
  <path d="M105.81,132.24c-4.29-9.35-8.51-18.72-12.81-28.06-.45-.98-1.21-2.49-1.92-2.55-3.31-.27-6.66-.12-9.68-.12-.13,1.52.06,2.73-.37,3.66-4.59,9.97-9.26,19.9-13.96,29.82-.59,1.26-1.47,2.38-2.41,3.85h8.67c1.44-3.49,2.6-6.52,3.96-9.45.28-.6,1.33-1.16,2.04-1.18,4.27-.11,8.55-.13,12.82,0,.77.02,1.9.67,2.22,1.33,1.42,2.92,2.6,5.94,4.05,9.34h10.74c-1.27-2.49-2.4-4.53-3.37-6.64ZM80.18,122.61c1.83-4.19,3.5-8.02,5.17-11.84.24-.04.47-.08.71-.13,1.76,3.84,3.51,7.67,5.48,11.97h-11.36Z"/>
  <path d="M174.66,120.02c-2.71-1.33-5.7-2.11-8.57-3.14-2.21-.79-4.54-1.35-6.61-2.42-2.79-1.45-2.97-4.55-.39-6.34,1.22-.85,2.85-1.38,4.34-1.51,4.49-.38,8.37,1.29,11.77,4.14.49.41,1.01.81,1.97,1.57v-8.99c-2.18-.55-4.08-.98-5.94-1.51-6.2-1.75-12.27-1.67-17.99,1.59-3.39,1.93-5.5,4.79-5.46,8.89.04,3.95,2.25,6.52,5.53,8.22,1.92,1,4.01,1.69,6.06,2.4,2.47.85,5.03,1.46,7.47,2.37,2.09.78,4.18,1.96,3.78,4.65-.4,2.66-2.61,3.51-4.98,3.87-5.46.82-10.38-.45-14.7-3.93-.57-.46-1.21-.84-2.21-1.52v8.85c2.09.44,3.92.84,5.77,1.2,2.56.5,5.12,1.24,7.71,1.39,4.96.28,9.79-.44,13.89-3.58,6.12-4.69,5.45-12.81-1.43-16.2Z"/>
  <path d="M255.84,137.83c.2-1.74.08-3.52.08-5.03-3.29.19-6.11.41-8.95.49-2.88.08-5.77.13-8.63-.06-.67-.05-1.74-1.11-1.81-1.79-.23-2.24-.05-4.53-.11-6.79-.04-1.63.77-2.15,2.27-2.05,2.82.18,5.65.31,8.52.47v-6.95c-.56.06-.8.1-1.05.11-3.08.11-6.15.21-9.23.31-.16-2.39-.33-4.79-.48-7.18-.02-.26-.09-.61.04-.77.4-.48.89-1.27,1.34-1.27,5.53,0,11.05.11,17.21.2,0-.32,0-1.24,0-2.17q0-3.94-3.85-3.94c-7.59,0-15.18,0-22.77,0-.79,0-1.59.13-1.93.17v37.16s.23.23.46.23c9.07.04,18.14.08,27.22.03.59,0,1.64-.7,1.69-1.17Z"/>
  <path d="M291.1,137.75c.19-1.77.07-3.57.07-4.86-4.05.15-7.74.38-11.43.4-8.31.06-8.28.02-8.08-8.26.04-1.77.57-2.6,2.43-2.45,2.74.22,5.5.34,8.48.52v-7.04c-.75.18-1.23.38-1.72.39-2.85.08-5.69.12-8.54.18-.21-2.29-.39-4.58-.63-6.86-.2-1.92.56-2.65,2.53-2.57,5.24.22,10.48.28,16.06.41,0-.43,0-1.36,0-2.29q0-3.92-3.87-3.91c-7.5,0-15,0-22.5,0-.89,0-1.79.12-1.95.13.23,12.67.45,24.92-.19,37.26.02,0,.17.15.32.15,9.15.04,18.31.09,27.46.05.54,0,1.49-.77,1.54-1.26Z"/>
  <path d="M142.38,136.79c.32-.1.73-.61.74-.93.07-2.21.03-4.43.03-7.35-7.68,5.78-15.12,9.21-21.69.12-3.98-5.51-2.83-14.5,1.96-18.81,1.71-1.54,4.15-2.59,6.43-3.09,4.42-.97,8.17.79,11.52,4v-8.08c-1.58-.26-2.85-.48-4.13-.67-2.83-.41-5.66-1.19-8.48-1.13-9.77.23-18.12,8-18.93,17.29-.93,10.64,5.24,18.92,15.53,21.3,6.11,1.41,11.48-.87,17.01-2.65Z"/>
  <path d="M216.82,101.48c-10.54-.11-21.08-.1-31.63-.02-.66,0-1.82.72-1.88,1.21-.22,1.92-.09,3.87-.09,5.37,2.98-.29,5.59-.71,8.2-.76,5.42-.1,4.89-.61,4.88,4.86-.01,8.83-.04,17.66-.07,26.68h10.4c-.29-1.36-.73-2.44-.73-3.53-.06-8.71-.02-17.41-.05-26.12,0-1.48.65-2.04,2.07-1.96,3.49.2,6.98.37,10.98.58,0-1.19.2-2.95-.09-4.61-.12-.69-1.29-1.69-1.99-1.7Z"/>
  <path d="M327.68,133.06c-5.97.09-11.41.23-16.85.17-.67,0-1.91-1.07-1.91-1.65-.04-9.94-.25-19.9.06-29.88h-9.81c.18,12.54.27,24.78-.07,37.22-.23-.12-.07.03.08.03,8.88.05,17.77.12,26.65.05.62,0,1.65-.99,1.77-1.65.27-1.49.08-3.07.08-4.3Z"/>
  <path d="M39.21,157.71v10.66c-.31.22-.62.45-.93.67-.37-.67-.64-1.41-1.12-1.99-2.05-2.48-4.16-4.92-6.25-7.37-2.1-2.46-3.48-2.81-6.9-1.69,0,5.02.03,10.05-.01,15.08-.03,2.93.49,3.29,3.73,2.16v-11.28c.2-.08.4-.16.6-.25.51.56,1.04,1.1,1.53,1.67,2.62,3.03,5.1,6.2,7.92,9.02.91.9,2.72,1.03,4.15,1.14.24.02.88-1.84.9-2.84.1-4.94.04-9.88.04-15.2-1.21.07-2.39.14-3.68.21Z"/>
  <path d="M117.21,166.49c3.14-2.45,2.8-6.44-.88-7.9-4.55-1.81-9.33-.96-14.11-1.11,0,5.9-.04,11.27.06,16.64.01.57.76,1.51,1.29,1.61,3.03.59,3.57.06,3.47-3.03-.02-.52-.12-1.07.01-1.56.23-.84.7-2.35.91-2.32,1.08.14,2.37.41,3.1,1.13,1.09,1.07,1.77,2.56,2.64,3.86,1.56,2.31,3.53,2.72,6.25,1.22-1.6-2.33-3.2-4.66-4.87-7.1.86-.58,1.52-.98,2.12-1.45ZM109.86,165.6c-2.27.38-2.9-.58-2.9-2.76,0-2.29,1.06-2.68,2.91-2.38,1.89.3,4.59-.11,4.47,2.75-.11,2.64-2.77,2.01-4.48,2.4Z"/>
  <path d="M144.7,157.97v10.43c-.34.26-.68.52-1.01.79-.26-.64-.39-1.38-.8-1.89-2.09-2.56-4.43-4.93-6.36-7.6-1.91-2.64-4.24-2.51-6.88-1.9v17.66c3.48.69,3.56.61,3.52-2.62-.04-2.99,0-5.99,0-8.99.21-.07.42-.14.63-.21.55.6,1.13,1.18,1.66,1.8,2.62,3.03,5.09,6.2,7.92,9.02.9.89,2.75,1,4.18,1.05.29.01.9-1.83.93-2.83.1-4.09,0-8.18.05-12.27.04-3.24-.25-3.47-3.82-2.43Z"/>
  <path d="M270.58,157.73v10.59c-.2.11-.4.21-.6.32-.62-.68-1.25-1.35-1.84-2.05-2.21-2.58-4.46-5.12-6.6-7.76-1.57-1.93-3.64-1.49-5.52-1.1-.41.08-.59,2.03-.61,3.12-.08,4.18.05,8.36-.1,12.54-.06,1.58.03,2.49,1.93,2.46,1.85-.03,1.75-1.02,1.7-2.4-.12-3.22-.04-6.46-.04-10.32.98.88,1.39,1.17,1.72,1.55,2.84,3.3,5.55,6.73,8.57,9.85.83.86,2.6,1.04,3.94,1.04.37,0,1.04-1.77,1.06-2.73.11-4.95.05-9.9.05-15.09h-3.66Z"/>
  <path d="M234.41,157.18c-.11-.23-.23-.47-.34-.7-2.6,1.24-5.53,2.07-7.73,3.83-3.76,3.01-4.04,7.83-1.27,11.44,4.42,5.76,14.01,5.92,18.61.31,2.63-3.22,2.63-7.61-.01-10.82-2.4-2.92-5.6-4-9.26-4.05ZM234.52,173.15c-3.71.01-6.33-2.7-6.31-6.53.02-3.84,2.63-6.49,6.36-6.46,3.68.03,6.26,2.78,6.2,6.62-.05,3.63-2.72,6.35-6.25,6.36Z"/>
  <path d="M167.49,157.41c-1.88-.06-2.36.95-2.71,2.44-.18.75-.63,1.43-.96,2.14-2.08,4.39-4.15,8.78-6.23,13.17,3.01,1.26,3.76.99,4.71-1.73.7-2,1.72-3.4,4.17-2.93.76.14,1.58.11,2.35,0,1.89-.29,2.85.59,3.56,2.27,1.45,3.41,1.81,3.52,6.31,2.64-2.5-5.41-4.97-10.57-7.24-15.82-.83-1.92-2.16-2.12-3.95-2.18ZM165.04,167.55c.72-1.81,1.33-3.33,1.93-4.85.27-.04.53-.07.8-.11.69,1.53,1.38,3.05,2.25,4.96h-4.97Z"/>
  <path d="M90.94,172.66c-1.99-.07-4,.05-6,.13-1.43.06-1.91-.55-2-2.02-.14-2.14.49-3.11,2.74-2.82,1.2.15,2.47.25,3.64.02.67-.13,1.19-.99,1.77-1.52-.58-.53-1.1-1.41-1.75-1.52-1.26-.22-2.6-.08-3.9.04-1.78.16-2.5-.49-2.51-2.35,0-1.97.96-2.32,2.61-2.25,2.06.09,4.12.02,6.32.02.61-1.84.27-3.04-2.19-2.94-2,.08-4.01.02-6.01.02-1.84,0-3.68,0-5.51,0v18.25c4.49,0,8.9.05,13.29-.09.41-.01.96-1.25,1.06-1.97.04-.27-1.01-.98-1.59-1Z"/>
  <path d="M293.34,157.41c-1.87-.06-2.36.83-2.68,2.37-.17.82-.76,1.55-1.13,2.34-2.06,4.37-4.12,8.74-6.19,13.12,3.21,1.09,3.81.87,4.75-1.86.71-2.05,1.84-3.3,4.22-2.88.68.12,1.4.11,2.08,0,2.11-.34,3.18.68,3.9,2.55,1.19,3.06,2.2,3.39,6.07,2.15-2.45-5.31-4.88-10.4-7.13-15.56-.82-1.88-2.07-2.18-3.9-2.23ZM290.69,167.8c.83-1.97,1.46-3.46,2.09-4.94.28,0,.56-.01.84-.02.66,1.42,1.31,2.84,2.18,4.73-1.8.08-3.1.14-5.11.23Z"/>
  <path d="M67.47,157.47c-4.62.02-9.25-.05-13.86.07-.61.02-1.61.84-1.71,1.42-.34,1.86.82,1.78,2.27,1.56,3.79-.57,4.07-.26,4.07,3.48,0,3.73,0,7.46,0,11.54.61.09,1.2.18,1.79.26,2.17.28,3.4-.1,3.06-2.87-.35-2.83-.07-5.74-.08-8.62,0-4.13.22-4.28,4.28-3.83.66.07,1.88-.44,2.02-.92.4-1.34-.37-2.1-1.83-2.09Z"/>
  <path d="M197.54,157.45c-4.27.06-8.53.04-12.8,0-2.48-.02-2.73,1.22-1.97,3.34.91-.13,1.75-.28,2.6-.36,3.17-.31,3.47-.04,3.45,3.1-.01,3.48.08,6.97-.12,10.44-.13,2.29,1.36,1.78,2.56,1.81,1.25.04,2.69.4,2.49-1.85-.23-2.59-.12-5.21-.12-7.82q-.01-5.92,6.05-5.44c.79-2.23.2-3.24-2.14-3.21Z"/>
  <path d="M320.65,172.79c-1.81.15-2.47-.53-2.42-2.38.11-4.08.04-8.17.04-12.61h-4.89v18c4.25,0,8.33.07,12.39-.08.58-.02,1.11-1.18,1.66-1.81-.61-.42-1.19-1.16-1.83-1.21-1.64-.13-3.31-.04-4.95.1Z"/>
  <path d="M10.5,157.5c-1.21-.01-2.72-.44-2.55,1.83.19,2.42.04,4.86.04,7.29,0,0,.02,0,.03,0,0,2.35.17,4.71-.05,7.03-.21,2.24,1.11,2.13,2.58,2.14,1.54.02,2.63-.06,2.55-2.21-.16-4.77-.11-9.56.03-14.33.07-2.27-1.45-1.75-2.63-1.76Z"/>
  <path d="M213.71,157.6c-1.1-.05-1.96-.07-2.8-.13-1.73-.13-2.33.32-2.22,2.36.26,4.68.16,9.39-.03,14.08-.08,1.99,1.04,1.93,2.28,1.86,1.17-.06,2.8.57,2.79-1.66-.04-5.38-.01-10.76-.01-16.51Z"/>
  <path d="M199.91,34.1c.03-4.36.22-8.71.36-13.43-3.17,0-6.98.07-10.79-.03-1.71-.05-2.7.58-3.52,2.08-3.82,7.05-7.73,14.05-11.62,21.06-.35.62-.77,1.2-1.16,1.8-.27-.07-.55-.14-.82-.21.72-8.05-.84-16.18,1.15-24.6h-10.85c1.02,8.32.21,16.45.21,24.62-.83-.64-1.31-1.34-1.72-2.08-2.88-5.18-6.21-10.18-8.49-15.61-2.43-5.78-6.07-8.14-12.21-7.09-1.87.32-3.84.05-5.32.05.3,3.11.74,5.64.76,8.18.08,9.68.09,19.36,0,29.04-.03,2.94-.47,5.87-.74,8.99h10.37c-1.35-3.2-1.97-30.41-.75-33.42.52.74.99,1.33,1.38,1.97,4.96,8.31,9.91,16.62,14.84,24.95,1.16,1.96,3.13,3.86.1,6.47h12.15c.24-1.95-.03-3.75.69-4.99,5.22-9.07,10.63-18.02,16-27,.31-.51.8-.91,1.52-1.72.11,1.06.2,1.56.2,2.06,0,7.15.04,14.3-.06,21.45-.05,3.37-.39,6.74-.61,10.15h9.82c-.33-2.2-.83-4.11-.85-6.02-.09-8.89-.08-17.79-.02-26.68Z"/>
</svg>